HIERARCHY
ROOT root
{
	OFFSET 0.000000 0.000000 0.000000
	CHANNELS 6 Xposition Yposition Zposition Zrotation Yrotation Xrotation
	JOINT lhip
	{
		OFFSET 0.058581 -0.082280 -0.017664
		CHANNELS 3 Zrotation Yrotation Xrotation
		JOINT lknee
		{
			OFFSET 0.043451 -0.386469 0.008037
			CHANNELS 3 Zrotation Yrotation Xrotation
			JOINT lankle
			{
				OFFSET -0.014790 -0.426874 -0.037428
				CHANNELS 3 Zrotation Yrotation Xrotation
				JOINT ltoe
				{
					OFFSET 0.041054 -0.060286 0.122042
					CHANNELS 3 Zrotation Yrotation Xrotation
					End Site
					{
						OFFSET 0.000000 0.000000 0.000000
					}
				}
			}
		}
	}
	JOINT rhip
	{
		OFFSET -0.060310 -0.090513 -0.013543
		CHANNELS 3 Zrotation Yrotation Xrotation
		JOINT rknee
		{
			OFFSET -0.043257 -0.383688 -0.004843
			CHANNELS 3 Zrotation Yrotation Xrotation
			JOINT rankle
			{
				OFFSET 0.019056 -0.420046 -0.034562
				CHANNELS 3 Zrotation Yrotation Xrotation
				JOINT rtoe
				{
					OFFSET -0.034840 -0.062106 0.130323
					CHANNELS 3 Zrotation Yrotation Xrotation
					End Site
					{
						OFFSET 0.000000 0.000000 0.000000
					}
				}
			}
		}
	}
	JOINT lowerback
	{
		OFFSET 0.004439 0.124404 -0.038385
		CHANNELS 3 Zrotation Yrotation Xrotation
		JOINT upperback
		{
			OFFSET 0.004488 0.137956 0.026820
			CHANNELS 3 Zrotation Yrotation Xrotation
			JOINT chest
			{
				OFFSET -0.002265 0.056032 0.002855
				CHANNELS 3 Zrotation Yrotation Xrotation
				JOINT lowerneck
				{
					OFFSET -0.013390 0.211636 -0.033468
					CHANNELS 3 Zrotation Yrotation Xrotation
					JOINT upperneck
					{
						OFFSET 0.010113 0.088937 0.050410
						CHANNELS 3 Zrotation Yrotation Xrotation
						End Site
						{
							OFFSET 0.000000 0.000000 0.000000
						}
					}
				}
				JOINT lclavicle
				{
					OFFSET 0.071702 0.114000 -0.018898
					CHANNELS 3 Zrotation Yrotation Xrotation
					JOINT lshoulder
					{
						OFFSET 0.122921 0.045205 -0.019046
						CHANNELS 3 Zrotation Yrotation Xrotation
						JOINT lelbow
						{
							OFFSET 0.255332 -0.015649 -0.022946
							CHANNELS 3 Zrotation Yrotation Xrotation
							JOINT lwrist
							{
								OFFSET 0.265709 0.012698 -0.007375
								CHANNELS 3 Zrotation Yrotation Xrotation
								End Site
								{
									OFFSET 0.000000 0.000000 0.000000
								}
							}
						}
					}
				}
				JOINT rclavicle
				{
					OFFSET -0.082954 0.112472 -0.023707
					CHANNELS 3 Zrotation Yrotation Xrotation
					JOINT rshoulder
					{
						OFFSET -0.113228 0.046853 -0.008472
						CHANNELS 3 Zrotation Yrotation Xrotation
						JOINT relbow
						{
							OFFSET -0.260127 -0.014369 -0.031269
							CHANNELS 3 Zrotation Yrotation Xrotation
							JOINT rwrist
							{
								OFFSET -0.269108 0.006794 -0.006027
								CHANNELS 3 Zrotation Yrotation Xrotation
								End Site
								{
									OFFSET 0.000000 0.000000 0.000000
								}
							}
						}
					}
				}
			}
		}
	}
}
MOTION
Frames: 16
Frame Time: 0.033333
0.620974 0.885119 1.023062 -170.458092 10.348234 70.742436 10.353402 1.638070 20.617230 -8.678506 -28.669965 30.382675 -0.864853 11.377894 -14.592783 0.000000 -0.000000 0.000000 -13.193134 -6.832462 -58.258010 -2.027817 -23.673031 92.799284 3.468662 -2.359684 -11.161950 0.000000 -0.000000 0.000000 1.855669 -11.898254 34.812254 5.186252 1.269071 0.952944 1.376710 -3.994927 3.057624 4.887087 7.297065 4.741768 -2.456357 -4.044718 16.578389 -23.248598 -7.367808 0.948223 -49.521198 -13.348914 8.047708 13.625277 -38.468655 -1.893577 1.895712 -6.466658 -10.275476 27.402152 6.635054 1.632515 52.635489 4.214674 8.062105 -19.050845 33.609659 -13.063617 0.705392 5.768337 -5.162044 
0.626898 0.908758 1.023162 -170.331513 9.598576 72.319374 10.877112 1.925056 21.360729 -8.476193 -29.540381 28.283806 -1.644611 10.606054 -13.817072 0.000000 -0.000000 0.000000 -12.738439 -6.264639 -58.718513 -2.588568 -23.685990 93.844457 1.541583 -2.509850 -15.411400 0.000000 -0.000000 0.000000 1.703668 -12.086334 34.609716 4.909078 1.748225 0.557626 1.315949 -3.713205 2.939520 5.074483 7.690918 3.296893 -2.456773 -4.641052 16.900177 -23.560535 -6.830887 0.792891 -50.180025 -13.136769 8.046356 13.900221 -37.738822 -2.852716 2.927784 -6.473564 -10.659147 27.583912 6.476792 1.687720 52.774834 4.026235 7.703518 -18.282359 32.276948 -12.449770 0.370554 5.957967 -5.283142 
0.633536 0.931953 1.034014 -169.940445 8.844849 74.773678 10.666910 1.735221 21.321513 -7.064976 -29.898553 24.680755 -2.848245 10.474221 -9.436183 0.000000 -0.000000 0.000000 -12.293979 -6.115670 -59.042518 -2.884314 -24.163820 93.510480 -0.010537 -4.657717 -18.139919 0.000000 -0.000000 0.000000 1.884734 -12.444398 33.689296 4.732493 1.965422 0.101882 1.094102 -3.689292 2.704668 5.086046 8.027001 2.341382 -2.693600 -4.621624 16.961431 -23.866203 -6.017999 1.398509 -51.097053 -13.059389 8.283605 13.985635 -36.011136 -4.342378 2.957336 -5.691581 -13.381916 27.942988 5.960131 1.577518 52.831349 4.263463 7.960033 -16.982360 30.505705 -11.571956 -0.076639 5.962805 -6.123827 
0.641203 0.955183 1.056506 -169.996312 8.161157 77.440223 10.953385 2.127544 20.537239 -5.148334 -29.377216 20.150547 -5.756144 8.915821 -0.319469 0.000000 -0.000000 0.000000 -11.266327 -4.795750 -58.352656 -3.233042 -23.936591 91.668670 -1.350359 -4.777166 -20.469726 0.000000 -0.000000 0.000000 2.285712 -13.004093 32.997528 4.433398 1.925988 -0.232858 1.003322 -3.681432 1.793813 4.466400 8.758944 2.339346 -2.813353 -3.839082 16.354395 -24.474608 -5.403419 1.677873 -52.236125 -11.731341 8.455846 14.212985 -33.240511 -5.867831 3.203454 -4.922026 -16.702233 27.960628 6.283307 2.427121 52.985465 4.978324 8.048441 -15.154983 28.085109 -10.512791 -2.811647 5.745926 -7.196957 
0.648632 0.978850 1.086276 -169.689221 7.198426 79.836208 11.244505 3.018007 18.917735 -3.375344 -27.994502 15.531488 -11.092872 7.368367 14.597859 0.000000 -0.000000 0.000000 -10.329847 -3.895533 -56.269700 -3.705644 -23.888394 88.067218 -3.102813 -5.266421 -21.625706 0.000000 -0.000000 0.000000 2.549877 -12.976141 32.193033 4.246493 1.260179 -0.255125 1.087865 -3.708197 0.782845 3.389543 9.131122 3.011272 -2.196284 -3.095003 14.855266 -24.212058 -5.726588 2.725463 -54.338775 -10.236245 8.562388 14.492801 -30.446258 -7.167818 2.868044 -3.824725 -19.256770 27.579898 6.834030 3.446156 53.611406 5.086361 7.169750 -14.335105 26.762057 -9.863577 -2.460739 5.412501 -7.854730 
0.655640 1.000662 1.116656 -169.621873 5.945192 81.946106 11.055186 3.775525 16.757334 -2.773927 -26.312969 11.906556 -14.002896 7.158110 27.660871 0.000000 -0.000000 0.000000 -9.431853 -3.073939 -54.159502 -3.527542 -23.043751 84.179504 -4.496032 -5.538390 -22.472772 0.000000 -0.000000 0.000000 2.715608 -12.661780 31.422323 3.826724 0.843542 -0.028591 1.202932 -4.098516 -0.037275 1.873880 9.052533 2.823326 -1.743360 -1.990181 13.321044 -23.888300 -5.664258 3.176540 -55.569738 -8.739986 8.175671 13.683335 -29.156674 -5.590618 1.262589 -3.371805 -19.221219 26.085516 7.516792 4.368722 55.201968 5.508800 6.879014 -13.953334 26.014183 -9.639573 -3.672316 5.352801 -7.921261 
0.662617 1.020418 1.146304 -169.966809 4.241442 83.619682 8.637903 2.751445 13.818937 -2.666389 -23.710631 13.358402 -11.420962 8.379308 29.372381 0.000000 -0.000000 0.000000 -8.881629 -2.161878 -51.819225 -2.293522 -21.912396 79.287623 -4.790838 -6.665692 -22.369593 0.000000 -0.000000 0.000000 2.163624 -11.491714 30.383900 3.536957 0.424726 0.291460 1.067975 -3.958713 -0.436253 1.018599 8.171012 2.533154 -1.418417 -0.753790 12.715570 -23.556858 -6.224557 4.039852 -55.786130 -7.990744 8.789465 12.898392 -28.294143 -3.339399 -0.019942 -3.225614 -16.955791 25.385924 8.017671 4.368310 55.943288 4.868491 7.732167 -14.765730 26.326431 -10.110268 -0.328708 4.969540 -9.912091 
0.669616 1.038857 1.176252 -170.960538 3.293415 84.389267 6.804013 2.418629 10.659054 -2.112771 -20.687406 18.648552 -12.024107 8.140119 23.124385 0.000000 -0.000000 0.000000 -7.398448 -0.769277 -48.562198 -2.637969 -20.638675 74.628630 -4.211150 -6.502042 -21.939886 0.000000 -0.000000 0.000000 2.163901 -10.227558 30.298435 3.063455 0.202081 0.023946 0.806135 -3.585248 -0.453862 0.923769 8.372702 2.285600 -1.947945 -1.030946 12.298960 -23.931083 -6.409144 4.132559 -55.091556 -7.107160 8.675124 12.179077 -28.819257 0.384260 -6.989213 -5.595830 -13.149108 25.655017 8.176159 4.499407 55.233892 5.019619 8.021134 -14.728392 26.905745 -8.417886 1.007150 5.135660 -10.939942 
0.675541 1.056888 1.204990 -171.828352 3.117918 84.928262 5.256199 1.593776 7.546299 -1.686457 -19.160698 25.001299 -8.721504 9.263645 18.617640 0.000000 -0.000000 0.000000 -5.680668 0.307249 -44.618379 -1.704557 -19.690151 68.695936 -3.339616 -6.698495 -21.327882 0.000000 -0.000000 0.000000 2.949552 -9.224416 29.811223 2.756237 0.382683 -0.478562 0.660467 -3.370290 -0.038109 0.119254 7.973854 2.312018 -2.579935 -0.345447 12.581950 -24.626729 -5.964843 3.902287 -54.765687 -7.053161 9.267478 10.781572 -28.750057 2.693280 -5.940589 -5.570439 -11.011207 25.232553 8.214584 3.871559 54.341109 5.576509 8.744387 -13.693809 26.308502 -7.356284 -0.978419 5.566581 -10.231129 
0.680555 1.073472 1.233561 -172.452158 2.604887 84.807686 3.829399 0.796200 4.411160 -1.839385 -16.495457 32.569738 -6.590108 10.192485 17.646805 0.000000 -0.000000 0.000000 -4.384629 0.669828 -39.968750 -1.327006 -18.766131 62.970235 -3.419301 -6.730584 -19.894245 0.000000 -0.000000 0.000000 3.142355 -8.077346 29.538836 2.519732 0.127411 -0.971743 0.556816 -2.998211 0.594892 -0.594999 7.578018 2.646468 -2.946131 0.392945 12.879485 -24.569454 -5.712638 4.061554 -55.817595 -6.849372 9.235812 11.496855 -29.425108 2.915888 -6.339328 -5.359286 -9.788146 25.120114 8.364688 3.714341 53.864412 6.476733 8.537368 -14.529016 26.383954 -8.283011 -1.194578 5.089414 -8.895460 
0.684872 1.090082 1.262135 -173.437424 2.046684 84.569479 2.722763 -0.229717 2.116855 -2.398243 -12.821047 38.853875 -5.228009 11.143554 16.601906 0.000000 -0.000000 0.000000 -2.952688 0.606296 -34.956663 -0.529917 -17.196454 56.329809 -3.280508 -6.555286 -18.336730 0.000000 -0.000000 0.000000 3.344182 -6.564823 29.092875 2.191984 0.184065 -1.190069 0.659887 -2.964048 0.740803 -1.736135 6.762464 3.242843 -2.923341 1.882776 13.128859 -24.999825 -4.860542 3.696984 -56.302137 -6.335626 9.243660 11.127219 -29.973434 3.263115 -6.042491 -5.519630 -11.161931 24.825944 8.524465 3.662888 53.296086 7.370496 8.962224 -14.866641 26.046430 -8.486005 -2.013940 4.746105 -9.026934 
0.688702 1.105625 1.290037 -174.004173 1.640169 84.180642 2.334293 -0.701744 -0.032073 -3.321140 -9.955979 44.759110 -5.068328 10.293241 14.924204 0.000000 -0.000000 0.000000 -1.787042 0.219723 -29.464606 0.377152 -15.505887 49.138075 -2.608193 -5.610411 -16.426412 0.000000 -0.000000 0.000000 3.577773 -5.122386 28.576777 2.047823 0.012081 -1.521708 0.608759 -2.393232 1.008004 -2.158636 6.151350 4.289398 -2.781489 2.372244 13.215009 -25.203460 -4.157594 3.315998 -56.790052 -6.190462 9.235966 10.567188 -30.274895 3.579003 -5.059115 -5.712781 -11.826238 24.695374 8.225673 3.338626 52.932832 8.163844 8.873549 -15.334360 25.676720 -9.394985 -3.930294 4.609935 -9.200950 
0.690686 1.119352 1.316031 -174.547239 0.937071 83.845817 1.598714 -0.467997 -1.832359 -3.593740 -6.994115 49.362658 -4.442785 9.821095 12.361661 0.000000 -0.000000 0.000000 -1.183352 -0.800599 -24.127101 1.024806 -13.960591 41.822406 -2.121511 -4.734854 -13.936089 0.000000 -0.000000 0.000000 4.013555 -3.791441 28.021519 1.501875 -0.120892 -1.933438 0.317577 -1.963278 1.500190 -2.855245 5.342366 5.026134 -2.480147 3.007893 13.008964 -25.358694 -3.827794 3.548254 -56.739783 -6.118926 9.049730 10.157697 -31.249179 3.009929 -3.627509 -5.959922 -12.321791 24.202198 8.158401 3.154052 53.042946 8.603072 8.841508 -16.333082 26.591430 -10.690313 -4.809364 4.230978 -8.694642 
0.692592 1.131637 1.339634 -175.217571 0.380319 83.567303 1.081982 -0.118678 -3.172104 -4.046904 -4.517243 52.632423 -3.459032 9.163687 8.390281 0.000000 -0.000000 0.000000 -0.736347 -2.246709 -19.051286 1.824196 -12.219171 34.556696 -1.219368 -3.287238 -11.384397 0.000000 -0.000000 0.000000 4.629706 -2.339207 27.262317 0.879265 -0.335822 -1.870552 0.060203 -1.428692 1.664103 -3.774923 4.492550 6.187312 -1.897947 3.721900 12.215308 -25.364784 -4.104018 3.757601 -56.759395 -5.820711 8.321334 10.141697 -31.672827 2.513431 -3.458773 -6.377868 -11.819611 23.227501 8.652960 3.367348 53.721046 9.047970 8.422672 -17.373140 27.460251 -11.980713 -5.260026 3.710700 -8.930473 
0.693905 1.143421 1.359744 -175.685690 -0.078596 83.013874 0.635040 0.578165 -3.839424 -4.580098 -3.156896 54.642577 -4.390693 7.686808 3.633477 0.000000 -0.000000 0.000000 -0.279575 -3.437084 -13.858961 1.794067 -10.858917 27.554728 0.380603 -1.942697 -9.257605 0.000000 -0.000000 0.000000 5.416870 -1.153792 26.916061 0.151690 -0.341895 -1.714840 -0.209168 -0.842000 1.564133 -4.302135 3.911403 6.970133 -1.622203 4.121832 12.124876 -25.394485 -4.411417 3.398580 -56.665148 -5.375047 7.700221 10.093383 -31.523273 2.360207 -3.340140 -7.032979 -10.627863 22.261795 8.930645 3.183037 54.090444 8.851440 7.950690 -17.933594 29.126488 -12.398993 -4.777773 4.052216 -9.467419 
0.695304 1.154795 1.374291 -175.668890 -0.572859 82.710234 0.367016 1.202015 -4.548535 -5.571454 -2.340582 55.452839 -3.733977 6.221483 -1.004412 0.000000 -0.000000 0.000000 -0.263991 -4.916033 -9.306573 2.174390 -9.439262 21.070127 1.381383 -1.149087 -7.533417 0.000000 -0.000000 0.000000 5.925011 -0.327271 26.275872 -0.423636 -0.688833 -1.793937 -0.495715 -0.250856 1.672551 -5.148969 3.166528 7.725112 -1.062454 4.618895 12.028590 -25.310659 -4.422144 3.165234 -56.344157 -4.917849 7.017034 9.718656 -31.571366 1.909520 -2.773524 -6.961182 -10.739892 21.630138 9.414664 3.431884 53.934925 8.657384 7.845212 -18.472283 31.410715 -12.294206 -4.408462 4.290969 -9.261717 
